<svg xmlns="http://www.w3.org/2000/svg" xmlns:xlink="http://www.w3.org/1999/xlink" width="500" zoomAndPan="magnify" viewBox="0 0 375 374.999991" height="500" preserveAspectRatio="xMidYMid meet" version="1.0"><defs><g/><clipPath id="54c83f0742"><path d="M 82.144531 180.722656 L 115 180.722656 L 115 213.722656 L 82.144531 213.722656 Z M 82.144531 180.722656 " clip-rule="nonzero"/></clipPath><clipPath id="8c3d144d52"><path d="M 150.871094 180.722656 L 215.371094 180.722656 L 215.371094 213.722656 L 150.871094 213.722656 Z M 150.871094 180.722656 " clip-rule="nonzero"/></clipPath><clipPath id="1e9ea79921"><path d="M 251.460938 175.039062 L 295.710938 175.039062 L 295.710938 219.289062 L 251.460938 219.289062 Z M 251.460938 175.039062 " clip-rule="nonzero"/></clipPath></defs><g clip-path="url(#54c83f0742)"><path fill="#2a9ee9" d="M 98.5625 180.722656 C 107.589844 180.722656 114.980469 188.109375 114.980469 197.140625 C 114.980469 206.171875 107.589844 213.558594 98.5625 213.558594 C 89.53125 213.558594 82.144531 206.171875 82.144531 197.140625 C 82.144531 188.109375 89.53125 180.722656 98.5625 180.722656 Z M 98.5625 182.539062 C 90.53125 182.539062 83.960938 189.109375 83.960938 197.140625 C 83.960938 205.171875 90.53125 211.738281 98.5625 211.738281 C 106.589844 211.738281 113.160156 205.171875 113.160156 197.140625 C 113.160156 189.109375 106.589844 182.539062 98.5625 182.539062 " fill-opacity="1" fill-rule="evenodd"/></g><path fill="#2a9ee9" d="M 91.988281 196.613281 L 98.359375 190.488281 C 98.472656 190.378906 98.652344 190.378906 98.765625 190.488281 L 98.765625 190.492188 L 105.070312 196.613281 L 105.074219 196.613281 L 105.277344 196.800781 C 105.34375 196.855469 105.375 196.9375 105.375 197.015625 L 105.378906 197.015625 L 105.378906 206.085938 C 105.378906 206.246094 105.246094 206.378906 105.082031 206.378906 L 100.570312 206.378906 L 100.570312 200.867188 C 100.570312 200.703125 100.4375 200.570312 100.273438 200.570312 L 96.847656 200.570312 C 96.6875 200.570312 96.554688 200.703125 96.554688 200.867188 L 96.554688 206.378906 L 92.039062 206.378906 C 91.878906 206.378906 91.746094 206.246094 91.746094 206.085938 L 91.746094 196.96875 C 91.746094 196.878906 91.789062 196.796875 91.851562 196.742188 L 91.988281 196.613281 " fill-opacity="1" fill-rule="evenodd"/><path fill="#2a9ee9" d="M 98.5625 188.988281 L 89.855469 197.253906 C 89.617188 197.480469 89.246094 197.46875 89.023438 197.234375 C 88.800781 197 88.808594 196.628906 89.046875 196.40625 L 98.15625 187.75 C 98.382812 187.535156 98.738281 187.535156 98.964844 187.75 L 108.078125 196.40625 C 108.3125 196.628906 108.324219 197 108.097656 197.234375 C 107.875 197.46875 107.503906 197.480469 107.269531 197.253906 L 98.5625 188.988281 " fill-opacity="1" fill-rule="evenodd"/><path fill="#2a9ee9" d="M 93.347656 193.289062 L 92.191406 194.945312 L 91.15625 194.945312 L 91.15625 189.855469 L 94.078125 189.855469 L 94.078125 193.179688 L 93.347656 193.289062 " fill-opacity="1" fill-rule="evenodd"/><g clip-path="url(#8c3d144d52)"><path fill="#f3d550" d="M 170.589844 185.929688 C 170.589844 184.265625 169.238281 182.914062 167.574219 182.914062 C 165.910156 182.914062 164.558594 184.265625 164.558594 185.929688 C 164.558594 187.589844 165.910156 188.945312 167.574219 188.945312 C 169.238281 188.945312 170.589844 187.589844 170.589844 185.929688 Z M 165.585938 185.929688 C 165.585938 184.832031 166.476562 183.9375 167.574219 183.9375 C 168.671875 183.9375 169.566406 184.832031 169.566406 185.929688 C 169.566406 187.027344 168.671875 187.917969 167.574219 187.917969 C 166.476562 187.917969 165.585938 187.027344 165.585938 185.929688 Z M 158.710938 196.472656 C 156.28125 196.472656 154.304688 198.449219 154.304688 200.878906 C 154.304688 203.308594 156.28125 205.285156 158.710938 205.285156 C 161.140625 205.285156 163.117188 203.308594 163.117188 200.878906 C 163.117188 198.449219 161.140625 196.472656 158.710938 196.472656 Z M 158.710938 204.257812 C 156.84375 204.257812 155.328125 202.742188 155.328125 200.878906 C 155.328125 199.011719 156.84375 197.496094 158.710938 197.496094 C 160.574219 197.496094 162.089844 199.011719 162.089844 200.878906 C 162.089844 202.742188 160.574219 204.257812 158.710938 204.257812 Z M 201.878906 185.929688 C 201.878906 184.265625 200.527344 182.914062 198.863281 182.914062 C 197.199219 182.914062 195.847656 184.265625 195.847656 185.929688 C 195.847656 187.589844 197.199219 188.945312 198.863281 188.945312 C 200.527344 188.945312 201.878906 187.589844 201.878906 185.929688 Z M 198.863281 187.917969 C 197.765625 187.917969 196.871094 187.027344 196.871094 185.929688 C 196.871094 184.832031 197.765625 183.9375 198.863281 183.9375 C 199.960938 183.9375 200.851562 184.832031 200.851562 185.929688 C 200.851562 187.027344 199.960938 187.917969 198.863281 187.917969 Z M 207.726562 196.472656 C 205.296875 196.472656 203.320312 198.449219 203.320312 200.878906 C 203.320312 203.308594 205.296875 205.285156 207.726562 205.285156 C 210.15625 205.285156 212.132812 203.308594 212.132812 200.878906 C 212.132812 198.449219 210.15625 196.472656 207.726562 196.472656 Z M 207.726562 204.257812 C 205.863281 204.257812 204.347656 202.742188 204.347656 200.878906 C 204.347656 199.011719 205.863281 197.496094 207.726562 197.496094 C 209.59375 197.496094 211.109375 199.011719 211.109375 200.878906 C 211.109375 202.742188 209.59375 204.257812 207.726562 204.257812 Z M 207.726562 193.0625 C 204.878906 193.0625 202.378906 194.53125 201.015625 196.71875 L 199.492188 193.84375 C 200.632812 192.675781 201.625 191.414062 202.445312 190.074219 C 203.390625 188.539062 204.027344 187.210938 204.070312 185.722656 C 204.070312 185.714844 204.070312 185.710938 204.070312 185.707031 C 204.070312 182.957031 201.734375 180.722656 198.863281 180.722656 C 195.992188 180.722656 193.65625 182.957031 193.65625 185.707031 C 193.65625 185.710938 193.65625 185.714844 193.65625 185.722656 C 193.6875 186.84375 194.046875 187.9375 194.863281 189.375 C 194.996094 189.609375 195.136719 189.847656 195.28125 190.078125 C 195.96875 191.1875 196.765625 192.246094 197.664062 193.238281 L 168.773438 193.238281 C 169.671875 192.246094 170.46875 191.1875 171.15625 190.078125 C 171.300781 189.847656 171.441406 189.609375 171.574219 189.375 C 172.390625 187.9375 172.75 186.84375 172.78125 185.722656 C 172.78125 185.714844 172.78125 185.710938 172.78125 185.707031 C 172.78125 182.957031 170.445312 180.722656 167.574219 180.722656 C 164.703125 180.722656 162.367188 182.957031 162.367188 185.707031 C 162.367188 185.710938 162.367188 185.714844 162.367188 185.722656 C 162.410156 187.210938 163.046875 188.539062 163.992188 190.074219 C 164.8125 191.410156 165.804688 192.675781 166.945312 193.84375 L 165.421875 196.71875 C 164.058594 194.53125 161.5625 193.0625 158.710938 193.0625 C 154.402344 193.0625 150.894531 196.414062 150.894531 200.535156 C 150.894531 200.539062 150.894531 200.542969 150.894531 200.546875 C 150.957031 202.800781 151.933594 204.828125 153.378906 207.179688 C 154.742188 209.402344 156.414062 211.496094 158.347656 213.410156 C 158.449219 213.507812 158.578125 213.558594 158.710938 213.558594 C 158.839844 213.558594 158.972656 213.507812 159.070312 213.410156 C 159.535156 212.949219 159.984375 212.476562 160.417969 211.992188 L 206.019531 211.992188 C 206.453125 212.476562 206.902344 212.949219 207.367188 213.410156 C 207.464844 213.507812 207.597656 213.558594 207.726562 213.558594 C 207.859375 213.558594 207.988281 213.507812 208.089844 213.410156 C 210.023438 211.496094 211.695312 209.402344 213.058594 207.179688 C 214.503906 204.828125 215.480469 202.800781 215.542969 200.546875 C 215.542969 200.542969 215.542969 200.539062 215.542969 200.535156 C 215.542969 196.414062 212.035156 193.0625 207.726562 193.0625 Z M 195.757812 188.871094 C 195.03125 187.589844 194.710938 186.644531 194.683594 185.699219 C 194.6875 183.519531 196.5625 181.75 198.863281 181.75 C 201.164062 181.75 203.039062 183.519531 203.042969 185.699219 C 203.011719 186.792969 202.597656 187.867188 201.574219 189.539062 C 200.816406 190.769531 199.90625 191.9375 198.863281 193.019531 C 197.828125 191.941406 196.917969 190.773438 196.152344 189.539062 C 196.015625 189.320312 195.882812 189.09375 195.757812 188.871094 Z M 163.394531 185.699219 C 163.398438 183.519531 165.273438 181.75 167.574219 181.75 C 169.878906 181.75 171.75 183.519531 171.753906 185.699219 C 171.726562 186.644531 171.40625 187.589844 170.679688 188.871094 C 170.554688 189.09375 170.421875 189.320312 170.285156 189.539062 C 169.519531 190.773438 168.609375 191.941406 167.574219 193.019531 C 166.53125 191.9375 165.621094 190.769531 164.863281 189.539062 C 163.839844 187.867188 163.425781 186.792969 163.394531 185.699219 Z M 158.710938 212.316406 C 156.988281 210.5625 155.488281 208.65625 154.253906 206.640625 C 152.625 203.996094 151.972656 202.28125 151.921875 200.527344 C 151.925781 196.976562 154.96875 194.089844 158.710938 194.089844 C 162.449219 194.089844 165.492188 196.976562 165.496094 200.527344 C 165.453125 202.042969 164.941406 203.558594 163.789062 205.59375 C 163.589844 205.945312 163.378906 206.296875 163.167969 206.640625 C 161.917969 208.660156 160.417969 210.570312 158.710938 212.316406 Z M 161.304688 210.96875 C 162.3125 209.757812 163.226562 208.496094 164.039062 207.179688 C 164.257812 206.828125 164.476562 206.464844 164.683594 206.097656 C 165.925781 203.90625 166.476562 202.246094 166.523438 200.546875 C 166.523438 200.542969 166.523438 200.539062 166.523438 200.535156 C 166.523438 199.582031 166.335938 198.671875 165.992188 197.835938 L 167.882812 194.265625 L 198.554688 194.265625 L 200.445312 197.835938 C 200.101562 198.671875 199.914062 199.582031 199.914062 200.535156 C 199.914062 200.539062 199.914062 200.542969 199.914062 200.546875 C 199.960938 202.246094 200.511719 203.90625 201.753906 206.097656 C 201.960938 206.464844 202.175781 206.828125 202.398438 207.179688 C 203.210938 208.496094 204.125 209.757812 205.132812 210.96875 Z M 212.1875 206.640625 C 210.949219 208.65625 209.449219 210.5625 207.726562 212.316406 C 206.019531 210.570312 204.519531 208.660156 203.269531 206.640625 C 203.058594 206.296875 202.847656 205.945312 202.648438 205.59375 C 201.496094 203.558594 200.984375 202.042969 200.941406 200.527344 C 200.945312 196.976562 203.988281 194.089844 207.726562 194.089844 C 211.46875 194.089844 214.511719 196.976562 214.515625 200.527344 C 214.464844 202.28125 213.8125 203.996094 212.1875 206.640625 Z M 212.1875 206.640625 " fill-opacity="1" fill-rule="nonzero"/></g><g clip-path="url(#1e9ea79921)"><path fill="#2a9ee9" d="M 252.015625 219.222656 L 295.113281 219.222656 C 295.417969 219.222656 295.664062 218.972656 295.664062 218.667969 L 295.664062 215.886719 C 295.664062 215.582031 295.417969 215.332031 295.113281 215.332031 L 294.039062 215.332031 L 294.039062 213.003906 C 294.039062 212.699219 293.792969 212.453125 293.488281 212.453125 L 292.875 212.453125 L 292.875 182.207031 L 293.691406 182.207031 C 293.996094 182.207031 294.246094 181.960938 294.246094 181.65625 L 294.246094 178.886719 C 294.246094 178.582031 293.996094 178.332031 293.691406 178.332031 L 291.21875 178.332031 L 291.21875 175.570312 C 291.21875 175.265625 290.972656 175.019531 290.667969 175.019531 L 286.4375 175.019531 C 286.128906 175.019531 285.882812 175.265625 285.882812 175.570312 L 285.882812 178.332031 L 284.285156 178.332031 L 284.285156 175.570312 C 284.285156 175.265625 284.039062 175.019531 283.734375 175.019531 L 279.503906 175.019531 C 279.199219 175.019531 278.949219 175.265625 278.949219 175.570312 L 278.949219 178.332031 L 265.882812 178.332031 C 265.578125 178.332031 265.332031 178.582031 265.332031 178.886719 L 265.332031 181.65625 C 265.332031 181.960938 265.578125 182.207031 265.882812 182.207031 L 266.699219 182.207031 L 266.699219 188.359375 C 265.839844 187.679688 264.726562 187.265625 263.515625 187.265625 C 260.792969 187.265625 258.578125 189.339844 258.578125 191.886719 C 258.578125 192.4375 258.683594 192.976562 258.890625 193.496094 C 258.71875 193.710938 258.566406 193.933594 258.433594 194.167969 C 257.917969 193.941406 257.351562 193.816406 256.78125 193.816406 C 254.628906 193.816406 252.878906 195.457031 252.878906 197.472656 C 252.878906 197.886719 252.953125 198.292969 253.101562 198.679688 C 252.539062 199.40625 252.234375 200.277344 252.234375 201.175781 C 252.234375 201.683594 252.332031 202.183594 252.523438 202.660156 C 251.878906 203.492188 251.53125 204.5 251.53125 205.53125 C 251.53125 208.066406 253.597656 210.160156 256.238281 210.414062 L 256.253906 215.335938 L 252.015625 215.335938 C 251.707031 215.335938 251.460938 215.582031 251.460938 215.886719 L 251.460938 218.667969 C 251.460938 218.972656 251.707031 219.222656 252.015625 219.222656 Z M 292.933594 215.332031 L 266.640625 215.332031 L 266.640625 213.558594 L 292.933594 213.558594 Z M 264.105469 215.332031 L 264.082031 208.667969 C 265.023438 208.59375 265.910156 208.34375 266.699219 207.945312 L 266.699219 212.453125 L 266.089844 212.453125 C 265.785156 212.453125 265.535156 212.699219 265.535156 213.003906 L 265.535156 215.335938 L 264.105469 215.335938 Z M 285.078125 212.453125 L 280.339844 212.453125 L 280.339844 202.425781 L 285.078125 202.425781 Z M 279.234375 212.453125 L 274.496094 212.453125 L 274.496094 202.425781 L 279.234375 202.425781 Z M 286.988281 176.125 L 290.113281 176.125 L 290.113281 178.332031 L 286.988281 178.332031 Z M 280.054688 176.125 L 283.179688 176.125 L 283.179688 178.332031 L 280.054688 178.332031 Z M 266.4375 179.4375 L 293.136719 179.4375 L 293.136719 181.101562 L 266.4375 181.101562 Z M 291.769531 182.207031 L 291.769531 212.453125 L 286.183594 212.453125 L 286.183594 201.875 C 286.183594 201.570312 285.9375 201.324219 285.632812 201.324219 L 273.945312 201.324219 C 273.636719 201.324219 273.390625 201.570312 273.390625 201.875 L 273.390625 212.453125 L 267.804688 212.453125 L 267.804688 207.242188 C 269.277344 206.09375 270.21875 204.367188 270.21875 202.4375 C 270.21875 201.1875 269.824219 199.980469 269.078125 198.945312 C 269.019531 198.863281 268.957031 198.785156 268.894531 198.703125 C 269.160156 198.074219 269.296875 197.410156 269.296875 196.734375 C 269.296875 195.566406 268.890625 194.429688 268.140625 193.496094 C 268.347656 192.976562 268.453125 192.4375 268.453125 191.886719 C 268.453125 191.808594 268.449219 191.730469 268.445312 191.652344 C 268.40625 190.90625 268.175781 190.207031 267.804688 189.597656 L 267.804688 182.207031 Z M 263.515625 188.371094 C 265.5625 188.371094 267.242188 189.835938 267.34375 191.710938 C 267.347656 191.769531 267.347656 191.828125 267.347656 191.882812 C 267.347656 192.386719 267.230469 192.878906 266.996094 193.34375 C 266.894531 193.546875 266.929688 193.792969 267.085938 193.964844 C 267.796875 194.738281 268.191406 195.722656 268.191406 196.734375 C 268.191406 197.359375 268.042969 197.964844 267.75 198.542969 C 267.648438 198.746094 267.679688 198.992188 267.832031 199.160156 C 267.957031 199.300781 268.074219 199.445312 268.183594 199.59375 C 268.792969 200.4375 269.113281 201.421875 269.113281 202.4375 C 269.113281 205.105469 266.902344 207.304688 264.078125 207.5625 L 264.070312 204.867188 L 266.035156 202.902344 C 266.253906 202.683594 266.253906 202.335938 266.035156 202.121094 C 265.820312 201.902344 265.472656 201.902344 265.253906 202.121094 L 264.066406 203.3125 L 264.058594 201.039062 C 264.054688 200.734375 263.808594 200.488281 263.503906 200.488281 C 263.199219 200.488281 262.949219 200.734375 262.953125 201.042969 L 262.960938 203.230469 L 261.847656 202.121094 C 261.632812 201.902344 261.28125 201.902344 261.066406 202.121094 C 260.851562 202.335938 260.851562 202.683594 261.066406 202.902344 L 262.964844 204.800781 L 262.972656 207.566406 C 260.136719 207.3125 257.914062 205.109375 257.914062 202.4375 C 257.914062 201.246094 258.367188 200.082031 259.195312 199.160156 C 259.347656 198.988281 259.378906 198.746094 259.277344 198.539062 C 258.984375 197.964844 258.835938 197.355469 258.835938 196.734375 C 258.835938 195.722656 259.230469 194.738281 259.945312 193.960938 C 260.097656 193.792969 260.132812 193.546875 260.03125 193.339844 C 259.800781 192.878906 259.683594 192.386719 259.683594 191.882812 C 259.683594 189.949219 261.402344 188.371094 263.515625 188.371094 Z M 252.636719 205.53125 C 252.636719 204.652344 252.972656 203.792969 253.582031 203.113281 C 253.734375 202.945312 253.765625 202.699219 253.660156 202.496094 C 253.449219 202.074219 253.339844 201.628906 253.339844 201.175781 C 253.339844 200.4375 253.628906 199.714844 254.152344 199.148438 C 254.304688 198.980469 254.339844 198.734375 254.238281 198.527344 C 254.070312 198.191406 253.984375 197.835938 253.984375 197.472656 C 253.984375 196.066406 255.238281 194.921875 256.78125 194.921875 C 257.199219 194.921875 257.609375 195.011719 257.984375 195.175781 C 257.820312 195.679688 257.734375 196.203125 257.734375 196.734375 C 257.734375 197.410156 257.867188 198.074219 258.136719 198.703125 C 257.277344 199.777344 256.808594 201.09375 256.808594 202.4375 C 256.808594 204.71875 258.128906 206.714844 260.089844 207.808594 C 259.417969 208.625 258.433594 209.15625 257.34375 209.292969 L 257.335938 206.878906 C 257.335938 206.574219 257.085938 206.328125 256.78125 206.328125 C 256.476562 206.328125 256.230469 206.578125 256.230469 206.882812 L 256.238281 209.296875 C 254.207031 209.050781 252.636719 207.457031 252.636719 205.53125 Z M 257.34375 210.40625 C 258.867188 210.25 260.25 209.488281 261.121094 208.289062 C 261.125 208.285156 261.125 208.28125 261.125 208.277344 C 261.710938 208.488281 262.328125 208.621094 262.976562 208.671875 L 263 215.332031 L 257.359375 215.332031 Z M 252.566406 216.4375 L 294.558594 216.4375 L 294.558594 218.117188 L 252.566406 218.117188 Z M 252.566406 216.4375 " fill-opacity="1" fill-rule="nonzero"/></g><path fill="#2a9ee9" d="M 282.121094 199.269531 L 285.628906 199.269531 C 285.9375 199.269531 286.183594 199.023438 286.183594 198.714844 L 286.183594 193.847656 C 286.183594 193.542969 285.9375 193.292969 285.628906 193.292969 L 282.121094 193.292969 C 281.8125 193.292969 281.566406 193.542969 281.566406 193.847656 L 281.566406 198.714844 C 281.566406 199.023438 281.8125 199.269531 282.121094 199.269531 Z M 282.671875 194.398438 L 285.078125 194.398438 L 285.078125 198.164062 L 282.671875 198.164062 Z M 282.671875 194.398438 " fill-opacity="1" fill-rule="nonzero"/><path fill="#2a9ee9" d="M 282.121094 191.269531 L 285.628906 191.269531 C 285.9375 191.269531 286.183594 191.023438 286.183594 190.714844 L 286.183594 185.847656 C 286.183594 185.542969 285.9375 185.292969 285.628906 185.292969 L 282.121094 185.292969 C 281.8125 185.292969 281.566406 185.542969 281.566406 185.847656 L 281.566406 190.714844 C 281.566406 191.019531 281.8125 191.269531 282.121094 191.269531 Z M 282.671875 186.398438 L 285.078125 186.398438 L 285.078125 190.164062 L 282.671875 190.164062 Z M 282.671875 186.398438 " fill-opacity="1" fill-rule="nonzero"/><path fill="#2a9ee9" d="M 273.945312 199.269531 L 277.453125 199.269531 C 277.757812 199.269531 278.007812 199.023438 278.007812 198.714844 L 278.007812 193.847656 C 278.007812 193.542969 277.757812 193.292969 277.453125 193.292969 L 273.945312 193.292969 C 273.636719 193.292969 273.390625 193.542969 273.390625 193.847656 L 273.390625 198.714844 C 273.390625 199.023438 273.640625 199.269531 273.945312 199.269531 Z M 274.496094 194.398438 L 276.902344 194.398438 L 276.902344 198.164062 L 274.496094 198.164062 Z M 274.496094 194.398438 " fill-opacity="1" fill-rule="nonzero"/><path fill="#2a9ee9" d="M 273.945312 191.269531 L 277.453125 191.269531 C 277.757812 191.269531 278.007812 191.023438 278.007812 190.714844 L 278.007812 185.847656 C 278.007812 185.542969 277.757812 185.292969 277.453125 185.292969 L 273.945312 185.292969 C 273.636719 185.292969 273.390625 185.542969 273.390625 185.847656 L 273.390625 190.714844 C 273.390625 191.019531 273.640625 191.269531 273.945312 191.269531 Z M 274.496094 186.398438 L 276.902344 186.398438 L 276.902344 190.164062 L 274.496094 190.164062 Z M 274.496094 186.398438 " fill-opacity="1" fill-rule="nonzero"/><g fill="#f3d550" fill-opacity="1"><g transform="translate(80.732114, 163.606627)"><g><path d="M 7.046875 0 L 5.984375 0 L 5.40625 -3.375 L 5.359375 -3.671875 L 5.265625 -3.390625 L 4.125 0 L 3.15625 0 L 2.03125 -3.390625 L 1.9375 -3.671875 L 1.875 -3.390625 L 1.296875 0 L 0.21875 0 L 1.21875 -5.796875 L 2.296875 -5.796875 L 3.578125 -1.96875 L 3.640625 -1.75 L 3.71875 -1.96875 L 5 -5.796875 L 6.0625 -5.796875 Z M 7.046875 0 "/></g></g></g><g fill="#f3d550" fill-opacity="1"><g transform="translate(88.681174, 163.606627)"><g><path d="M 4.4375 0 L 4 -1.203125 L 1.59375 -1.203125 L 1.140625 0 L 0 0 L 2.234375 -5.796875 L 3.359375 -5.796875 L 5.59375 0 Z M 2 -2.28125 L 3.59375 -2.28125 L 2.796875 -4.40625 Z M 2 -2.28125 "/></g></g></g><g fill="#f3d550" fill-opacity="1"><g transform="translate(94.950025, 163.606627)"><g><path d="M 0.65625 -5.796875 L 1.765625 -5.796875 L 1.765625 0 L 0.65625 0 Z M 0.65625 -5.796875 "/></g></g></g><g fill="#f3d550" fill-opacity="1"><g transform="translate(98.060413, 163.606627)"><g><path d="M 2.109375 0.140625 C 1.691406 0.140625 1.328125 0.0351562 1.015625 -0.171875 C 0.710938 -0.378906 0.457031 -0.691406 0.25 -1.109375 L 1.171875 -1.671875 C 1.304688 -1.421875 1.453125 -1.226562 1.609375 -1.09375 C 1.765625 -0.96875 1.9375 -0.90625 2.125 -0.90625 C 2.25 -0.90625 2.363281 -0.929688 2.46875 -0.984375 C 2.570312 -1.035156 2.648438 -1.101562 2.703125 -1.1875 C 2.765625 -1.269531 2.796875 -1.359375 2.796875 -1.453125 C 2.796875 -1.554688 2.773438 -1.644531 2.734375 -1.71875 C 2.703125 -1.800781 2.644531 -1.878906 2.5625 -1.953125 C 2.488281 -2.035156 2.378906 -2.140625 2.234375 -2.265625 C 1.785156 -2.640625 1.453125 -2.929688 1.234375 -3.140625 C 1.015625 -3.347656 0.835938 -3.5625 0.703125 -3.78125 C 0.578125 -4 0.515625 -4.234375 0.515625 -4.484375 C 0.515625 -4.753906 0.582031 -5 0.71875 -5.21875 C 0.863281 -5.445312 1.0625 -5.625 1.3125 -5.75 C 1.5625 -5.882812 1.828125 -5.953125 2.109375 -5.953125 C 2.453125 -5.953125 2.753906 -5.867188 3.015625 -5.703125 C 3.273438 -5.546875 3.53125 -5.316406 3.78125 -5.015625 L 2.984375 -4.34375 C 2.828125 -4.519531 2.675781 -4.65625 2.53125 -4.75 C 2.382812 -4.84375 2.238281 -4.890625 2.09375 -4.890625 C 1.945312 -4.890625 1.828125 -4.847656 1.734375 -4.765625 C 1.640625 -4.691406 1.59375 -4.597656 1.59375 -4.484375 C 1.59375 -4.398438 1.617188 -4.316406 1.671875 -4.234375 C 1.734375 -4.148438 1.820312 -4.050781 1.9375 -3.9375 C 2.0625 -3.832031 2.265625 -3.671875 2.546875 -3.453125 C 2.867188 -3.191406 3.117188 -2.972656 3.296875 -2.796875 C 3.472656 -2.628906 3.613281 -2.4375 3.71875 -2.21875 C 3.832031 -2.007812 3.890625 -1.769531 3.890625 -1.5 C 3.890625 -1.1875 3.8125 -0.90625 3.65625 -0.65625 C 3.507812 -0.40625 3.300781 -0.207031 3.03125 -0.0625 C 2.757812 0.0703125 2.453125 0.140625 2.109375 0.140625 Z M 2.109375 0.140625 "/></g></g></g><g fill="#f3d550" fill-opacity="1"><g transform="translate(102.939861, 163.606627)"><g><path d="M 3.421875 0.140625 C 2.847656 0.140625 2.328125 0.00390625 1.859375 -0.265625 C 1.398438 -0.535156 1.035156 -0.90625 0.765625 -1.375 C 0.503906 -1.84375 0.375 -2.351562 0.375 -2.90625 C 0.375 -3.46875 0.507812 -3.976562 0.78125 -4.4375 C 1.0625 -4.90625 1.429688 -5.273438 1.890625 -5.546875 C 2.347656 -5.816406 2.851562 -5.953125 3.40625 -5.953125 C 3.9375 -5.953125 4.429688 -5.816406 4.890625 -5.546875 C 5.347656 -5.273438 5.710938 -4.90625 5.984375 -4.4375 C 6.265625 -3.976562 6.40625 -3.460938 6.40625 -2.890625 C 6.40625 -2.328125 6.269531 -1.8125 6 -1.34375 C 5.738281 -0.882812 5.378906 -0.519531 4.921875 -0.25 C 4.460938 0.0078125 3.960938 0.140625 3.421875 0.140625 Z M 3.40625 -0.921875 C 3.75 -0.921875 4.066406 -1.007812 4.359375 -1.1875 C 4.648438 -1.363281 4.878906 -1.597656 5.046875 -1.890625 C 5.210938 -2.191406 5.296875 -2.523438 5.296875 -2.890625 C 5.296875 -3.242188 5.210938 -3.570312 5.046875 -3.875 C 4.890625 -4.1875 4.664062 -4.429688 4.375 -4.609375 C 4.082031 -4.796875 3.753906 -4.890625 3.390625 -4.890625 C 3.046875 -4.890625 2.726562 -4.800781 2.4375 -4.625 C 2.144531 -4.457031 1.914062 -4.222656 1.75 -3.921875 C 1.582031 -3.617188 1.5 -3.273438 1.5 -2.890625 C 1.5 -2.503906 1.582031 -2.160156 1.75 -1.859375 C 1.925781 -1.554688 2.160156 -1.320312 2.453125 -1.15625 C 2.742188 -1 3.0625 -0.921875 3.40625 -0.921875 Z M 3.40625 -0.921875 "/></g></g></g><g fill="#f3d550" fill-opacity="1"><g transform="translate(110.404244, 163.606627)"><g><path d="M 4.203125 -5.796875 L 5.3125 -5.796875 L 5.3125 0 L 4.25 0 L 1.765625 -3.796875 L 1.765625 0 L 0.65625 0 L 0.65625 -5.796875 L 1.71875 -5.796875 L 4.203125 -2 Z M 4.203125 -5.796875 "/></g></g></g><g fill="#2a9ee9" fill-opacity="1"><g transform="translate(165.773882, 163.606627)"><g><path d="M 1.125 -4.71875 L 0.09375 -4.71875 L 0.09375 -5.796875 L 3.296875 -5.796875 L 3.296875 -4.71875 L 2.234375 -4.71875 L 2.234375 0 L 1.125 0 Z M 1.125 -4.71875 "/></g></g></g><g fill="#2a9ee9" fill-opacity="1"><g transform="translate(169.845542, 163.606627)"><g><path d="M 0.65625 -5.796875 L 3.828125 -5.796875 L 3.828125 -4.71875 L 1.765625 -4.71875 L 1.765625 -3.671875 L 3.828125 -3.671875 L 3.828125 -2.625 L 1.765625 -2.625 L 1.765625 -1.078125 L 3.828125 -1.078125 L 3.828125 0 L 0.65625 0 Z M 0.65625 -5.796875 "/></g></g></g><g fill="#2a9ee9" fill-opacity="1"><g transform="translate(174.716917, 163.606627)"><g><path d="M 2.15625 -5.796875 C 2.769531 -5.796875 3.25 -5.65625 3.59375 -5.375 C 3.945312 -5.09375 4.125 -4.675781 4.125 -4.125 C 4.125 -3.738281 4.023438 -3.414062 3.828125 -3.15625 C 3.640625 -2.90625 3.363281 -2.710938 3 -2.578125 L 4.375 0 L 3.171875 0 L 1.875 -2.453125 L 1.765625 -2.453125 L 1.765625 0 L 0.65625 0 L 0.65625 -5.796875 Z M 2.28125 -3.53125 C 2.53125 -3.53125 2.71875 -3.578125 2.84375 -3.671875 C 2.96875 -3.773438 3.03125 -3.925781 3.03125 -4.125 C 3.03125 -4.320312 2.960938 -4.46875 2.828125 -4.5625 C 2.703125 -4.664062 2.507812 -4.71875 2.25 -4.71875 L 1.765625 -4.71875 L 1.765625 -3.53125 Z M 2.28125 -3.53125 "/></g></g></g><g fill="#2a9ee9" fill-opacity="1"><g transform="translate(180.008342, 163.606627)"><g><path d="M 2.15625 -5.796875 C 2.769531 -5.796875 3.25 -5.65625 3.59375 -5.375 C 3.945312 -5.09375 4.125 -4.675781 4.125 -4.125 C 4.125 -3.738281 4.023438 -3.414062 3.828125 -3.15625 C 3.640625 -2.90625 3.363281 -2.710938 3 -2.578125 L 4.375 0 L 3.171875 0 L 1.875 -2.453125 L 1.765625 -2.453125 L 1.765625 0 L 0.65625 0 L 0.65625 -5.796875 Z M 2.28125 -3.53125 C 2.53125 -3.53125 2.71875 -3.578125 2.84375 -3.671875 C 2.96875 -3.773438 3.03125 -3.925781 3.03125 -4.125 C 3.03125 -4.320312 2.960938 -4.46875 2.828125 -4.5625 C 2.703125 -4.664062 2.507812 -4.71875 2.25 -4.71875 L 1.765625 -4.71875 L 1.765625 -3.53125 Z M 2.28125 -3.53125 "/></g></g></g><g fill="#2a9ee9" fill-opacity="1"><g transform="translate(185.299767, 163.606627)"><g><path d="M 4.4375 0 L 4 -1.203125 L 1.59375 -1.203125 L 1.140625 0 L 0 0 L 2.234375 -5.796875 L 3.359375 -5.796875 L 5.59375 0 Z M 2 -2.28125 L 3.59375 -2.28125 L 2.796875 -4.40625 Z M 2 -2.28125 "/></g></g></g><g fill="#2a9ee9" fill-opacity="1"><g transform="translate(191.568618, 163.606627)"><g><path d="M 0.65625 -5.796875 L 1.765625 -5.796875 L 1.765625 0 L 0.65625 0 Z M 0.65625 -5.796875 "/></g></g></g><g fill="#2a9ee9" fill-opacity="1"><g transform="translate(194.679006, 163.606627)"><g><path d="M 4.203125 -5.796875 L 5.3125 -5.796875 L 5.3125 0 L 4.25 0 L 1.765625 -3.796875 L 1.765625 0 L 0.65625 0 L 0.65625 -5.796875 L 1.71875 -5.796875 L 4.203125 -2 Z M 4.203125 -5.796875 "/></g></g></g><g fill="#f3d550" fill-opacity="1"><g transform="translate(235.958908, 163.606627)"><g><path d="M 4.4375 0 L 4 -1.203125 L 1.59375 -1.203125 L 1.140625 0 L 0 0 L 2.234375 -5.796875 L 3.359375 -5.796875 L 5.59375 0 Z M 2 -2.28125 L 3.59375 -2.28125 L 2.796875 -4.40625 Z M 2 -2.28125 "/></g></g></g><g fill="#f3d550" fill-opacity="1"><g transform="translate(242.227759, 163.606627)"><g><path d="M 2.109375 -5.796875 C 2.753906 -5.796875 3.25 -5.65625 3.59375 -5.375 C 3.945312 -5.101562 4.125 -4.6875 4.125 -4.125 C 4.125 -3.769531 4.039062 -3.46875 3.875 -3.21875 C 3.707031 -2.96875 3.472656 -2.773438 3.171875 -2.640625 C 2.878906 -2.515625 2.546875 -2.453125 2.171875 -2.453125 L 1.765625 -2.453125 L 1.765625 0 L 0.65625 0 L 0.65625 -5.796875 Z M 2.28125 -3.53125 C 2.78125 -3.53125 3.03125 -3.726562 3.03125 -4.125 C 3.03125 -4.3125 2.960938 -4.457031 2.828125 -4.5625 C 2.703125 -4.664062 2.503906 -4.71875 2.234375 -4.71875 L 1.765625 -4.71875 L 1.765625 -3.53125 Z M 2.28125 -3.53125 "/></g></g></g><g fill="#f3d550" fill-opacity="1"><g transform="translate(247.268764, 163.606627)"><g><path d="M 2.109375 -5.796875 C 2.753906 -5.796875 3.25 -5.65625 3.59375 -5.375 C 3.945312 -5.101562 4.125 -4.6875 4.125 -4.125 C 4.125 -3.769531 4.039062 -3.46875 3.875 -3.21875 C 3.707031 -2.96875 3.472656 -2.773438 3.171875 -2.640625 C 2.878906 -2.515625 2.546875 -2.453125 2.171875 -2.453125 L 1.765625 -2.453125 L 1.765625 0 L 0.65625 0 L 0.65625 -5.796875 Z M 2.28125 -3.53125 C 2.78125 -3.53125 3.03125 -3.726562 3.03125 -4.125 C 3.03125 -4.3125 2.960938 -4.457031 2.828125 -4.5625 C 2.703125 -4.664062 2.503906 -4.71875 2.234375 -4.71875 L 1.765625 -4.71875 L 1.765625 -3.53125 Z M 2.28125 -3.53125 "/></g></g></g><g fill="#f3d550" fill-opacity="1"><g transform="translate(252.30977, 163.606627)"><g><path d="M 4.4375 0 L 4 -1.203125 L 1.59375 -1.203125 L 1.140625 0 L 0 0 L 2.234375 -5.796875 L 3.359375 -5.796875 L 5.59375 0 Z M 2 -2.28125 L 3.59375 -2.28125 L 2.796875 -4.40625 Z M 2 -2.28125 "/></g></g></g><g fill="#f3d550" fill-opacity="1"><g transform="translate(258.57862, 163.606627)"><g><path d="M 2.15625 -5.796875 C 2.769531 -5.796875 3.25 -5.65625 3.59375 -5.375 C 3.945312 -5.09375 4.125 -4.675781 4.125 -4.125 C 4.125 -3.738281 4.023438 -3.414062 3.828125 -3.15625 C 3.640625 -2.90625 3.363281 -2.710938 3 -2.578125 L 4.375 0 L 3.171875 0 L 1.875 -2.453125 L 1.765625 -2.453125 L 1.765625 0 L 0.65625 0 L 0.65625 -5.796875 Z M 2.28125 -3.53125 C 2.53125 -3.53125 2.71875 -3.578125 2.84375 -3.671875 C 2.96875 -3.773438 3.03125 -3.925781 3.03125 -4.125 C 3.03125 -4.320312 2.960938 -4.46875 2.828125 -4.5625 C 2.703125 -4.664062 2.507812 -4.71875 2.25 -4.71875 L 1.765625 -4.71875 L 1.765625 -3.53125 Z M 2.28125 -3.53125 "/></g></g></g><g fill="#f3d550" fill-opacity="1"><g transform="translate(263.870047, 163.606627)"><g><path d="M 1.125 -4.71875 L 0.09375 -4.71875 L 0.09375 -5.796875 L 3.296875 -5.796875 L 3.296875 -4.71875 L 2.234375 -4.71875 L 2.234375 0 L 1.125 0 Z M 1.125 -4.71875 "/></g></g></g><g fill="#f3d550" fill-opacity="1"><g transform="translate(267.941709, 163.606627)"><g><path d="M 0.65625 -5.796875 L 3.828125 -5.796875 L 3.828125 -4.71875 L 1.765625 -4.71875 L 1.765625 -3.671875 L 3.828125 -3.671875 L 3.828125 -2.625 L 1.765625 -2.625 L 1.765625 -1.078125 L 3.828125 -1.078125 L 3.828125 0 L 0.65625 0 Z M 0.65625 -5.796875 "/></g></g></g><g fill="#f3d550" fill-opacity="1"><g transform="translate(272.813085, 163.606627)"><g><path d="M 7.046875 0 L 5.984375 0 L 5.40625 -3.375 L 5.359375 -3.671875 L 5.265625 -3.390625 L 4.125 0 L 3.15625 0 L 2.03125 -3.390625 L 1.9375 -3.671875 L 1.875 -3.390625 L 1.296875 0 L 0.21875 0 L 1.21875 -5.796875 L 2.296875 -5.796875 L 3.578125 -1.96875 L 3.640625 -1.75 L 3.71875 -1.96875 L 5 -5.796875 L 6.0625 -5.796875 Z M 7.046875 0 "/></g></g></g><g fill="#f3d550" fill-opacity="1"><g transform="translate(280.762147, 163.606627)"><g><path d="M 0.65625 -5.796875 L 3.828125 -5.796875 L 3.828125 -4.71875 L 1.765625 -4.71875 L 1.765625 -3.671875 L 3.828125 -3.671875 L 3.828125 -2.625 L 1.765625 -2.625 L 1.765625 -1.078125 L 3.828125 -1.078125 L 3.828125 0 L 0.65625 0 Z M 0.65625 -5.796875 "/></g></g></g><g fill="#f3d550" fill-opacity="1"><g transform="translate(285.633523, 163.606627)"><g><path d="M 4.203125 -5.796875 L 5.3125 -5.796875 L 5.3125 0 L 4.25 0 L 1.765625 -3.796875 L 1.765625 0 L 0.65625 0 L 0.65625 -5.796875 L 1.71875 -5.796875 L 4.203125 -2 Z M 4.203125 -5.796875 "/></g></g></g><g fill="#f3d550" fill-opacity="1"><g transform="translate(292.290119, 163.606627)"><g><path d="M 1.125 -4.71875 L 0.09375 -4.71875 L 0.09375 -5.796875 L 3.296875 -5.796875 L 3.296875 -4.71875 L 2.234375 -4.71875 L 2.234375 0 L 1.125 0 Z M 1.125 -4.71875 "/></g></g></g></svg>